G04 #@! TF.GenerationSoftware,KiCad,Pcbnew,(5.0.2)-1*
G04 #@! TF.CreationDate,2019-02-23T10:33:44+09:00*
G04 #@! TF.ProjectId,SPU0410LR5H,53505530-3431-4304-9c52-35482e6b6963,v1.1*
G04 #@! TF.SameCoordinates,Original*
G04 #@! TF.FileFunction,Copper,L1,Top*
G04 #@! TF.FilePolarity,Positive*
%FSLAX46Y46*%
G04 Gerber Fmt 4.6, Leading zero omitted, Abs format (unit mm)*
G04 Created by KiCad (PCBNEW (5.0.2)-1) date 2019/02/23 10:33:44*
%MOMM*%
%LPD*%
G01*
G04 APERTURE LIST*
G04 #@! TA.AperFunction,ComponentPad*
%ADD10R,3.048000X1.524000*%
G04 #@! TD*
G04 #@! TA.AperFunction,ComponentPad*
%ADD11O,3.048000X1.524000*%
G04 #@! TD*
G04 #@! TA.AperFunction,BGAPad,CuDef*
%ADD12C,0.562000*%
G04 #@! TD*
G04 #@! TA.AperFunction,BGAPad,CuDef*
%ADD13C,0.723000*%
G04 #@! TD*
G04 #@! TA.AperFunction,ComponentPad*
%ADD14C,1.224000*%
G04 #@! TD*
G04 #@! TA.AperFunction,BGAPad,CuDef*
%ADD15C,0.612000*%
G04 #@! TD*
G04 #@! TA.AperFunction,SMDPad,CuDef*
%ADD16R,1.049020X1.079500*%
G04 #@! TD*
G04 #@! TA.AperFunction,SMDPad,CuDef*
%ADD17R,1.800000X1.600000*%
G04 #@! TD*
G04 #@! TA.AperFunction,SMDPad,CuDef*
%ADD18R,0.400000X0.750000*%
G04 #@! TD*
G04 #@! TA.AperFunction,ViaPad*
%ADD19C,0.800000*%
G04 #@! TD*
G04 #@! TA.AperFunction,Conductor*
%ADD20C,0.300000*%
G04 #@! TD*
G04 #@! TA.AperFunction,Conductor*
%ADD21C,0.254000*%
G04 #@! TD*
G04 APERTURE END LIST*
D10*
G04 #@! TO.P,P1,1*
G04 #@! TO.N,VDD*
X141920000Y-108880000D03*
D11*
G04 #@! TO.P,P1,2*
G04 #@! TO.N,SOUT*
X141920000Y-111420000D03*
G04 #@! TO.P,P1,3*
G04 #@! TO.N,GND*
X141920000Y-113960000D03*
G04 #@! TD*
D12*
G04 #@! TO.P,U1,3*
G04 #@! TO.N,GND*
X149366000Y-112515000D03*
G04 #@! TO.P,U1,2*
X149366000Y-110485000D03*
D13*
G04 #@! TO.P,U1,4*
G04 #@! TO.N,VDD*
X152103000Y-112466000D03*
G04 #@! TO.P,U1,1*
G04 #@! TO.N,MOUT*
X152103000Y-110534000D03*
D14*
G04 #@! TO.P,U1,6*
G04 #@! TO.N,GND*
X150000000Y-111500000D03*
D15*
G04 #@! TO.P,U1,5*
X152103000Y-111500000D03*
G04 #@! TD*
D16*
G04 #@! TO.P,C2,2*
G04 #@! TO.N,MOUT*
X150390240Y-107940000D03*
G04 #@! TO.P,C2,1*
G04 #@! TO.N,Net-(C2-Pad1)*
X152137760Y-107940000D03*
G04 #@! TD*
D17*
G04 #@! TO.P,C3,1*
G04 #@! TO.N,VDD*
X154760000Y-112860000D03*
G04 #@! TO.P,C3,2*
G04 #@! TO.N,GND*
X154760000Y-110060000D03*
G04 #@! TD*
D16*
G04 #@! TO.P,C4,2*
G04 #@! TO.N,GND*
X145600240Y-114990000D03*
G04 #@! TO.P,C4,1*
G04 #@! TO.N,VDD*
X147347760Y-114990000D03*
G04 #@! TD*
G04 #@! TO.P,R1,1*
G04 #@! TO.N,Net-(C1-Pad1)*
X150420240Y-115540000D03*
G04 #@! TO.P,R1,2*
G04 #@! TO.N,VDD*
X152167760Y-115540000D03*
G04 #@! TD*
G04 #@! TO.P,R2,2*
G04 #@! TO.N,Net-(C1-Pad1)*
X150422240Y-117410000D03*
G04 #@! TO.P,R2,1*
G04 #@! TO.N,GND*
X152169760Y-117410000D03*
G04 #@! TD*
G04 #@! TO.P,R3,1*
G04 #@! TO.N,Net-(R3-Pad1)*
X150392240Y-106070000D03*
G04 #@! TO.P,R3,2*
G04 #@! TO.N,Net-(C2-Pad1)*
X152139760Y-106070000D03*
G04 #@! TD*
G04 #@! TO.P,R4,1*
G04 #@! TO.N,SOUT*
X141972240Y-106150000D03*
G04 #@! TO.P,R4,2*
G04 #@! TO.N,Net-(R3-Pad1)*
X143719760Y-106150000D03*
G04 #@! TD*
G04 #@! TO.P,C1,1*
G04 #@! TO.N,Net-(C1-Pad1)*
X147317760Y-106100000D03*
G04 #@! TO.P,C1,2*
G04 #@! TO.N,GND*
X145570240Y-106100000D03*
G04 #@! TD*
D18*
G04 #@! TO.P,U2,1*
G04 #@! TO.N,Net-(C1-Pad1)*
X147090000Y-110370000D03*
G04 #@! TO.P,U2,3*
G04 #@! TO.N,Net-(R3-Pad1)*
X145790000Y-110370000D03*
G04 #@! TO.P,U2,2*
G04 #@! TO.N,GND*
X146440000Y-110370000D03*
G04 #@! TO.P,U2,4*
G04 #@! TO.N,SOUT*
X145790000Y-112270000D03*
G04 #@! TO.P,U2,5*
G04 #@! TO.N,VDD*
X147090000Y-112270000D03*
G04 #@! TD*
D19*
G04 #@! TO.N,GND*
X146000000Y-108000000D03*
X148600000Y-107300000D03*
X153000000Y-109200000D03*
X158200000Y-110300000D03*
X154300000Y-116700000D03*
X146200000Y-117400000D03*
X146500000Y-111300000D03*
G04 #@! TO.N,Net-(C1-Pad1)*
X149947900Y-114390300D03*
X148400000Y-110571600D03*
G04 #@! TD*
D20*
G04 #@! TO.N,VDD*
X141920000Y-108880000D02*
X141920000Y-107767700D01*
X154516900Y-112860000D02*
X156010400Y-111366500D01*
X156010400Y-111366500D02*
X156010400Y-108364200D01*
X156010400Y-108364200D02*
X152338700Y-104692500D01*
X152338700Y-104692500D02*
X141828000Y-104692500D01*
X141828000Y-104692500D02*
X141097300Y-105423200D01*
X141097300Y-105423200D02*
X141097300Y-106945000D01*
X141097300Y-106945000D02*
X141920000Y-107767700D01*
X154760000Y-112860000D02*
X154516900Y-112860000D01*
X154134900Y-112860000D02*
X153509700Y-112860000D01*
X154134900Y-112860000D02*
X154516900Y-112860000D01*
X147390000Y-113630500D02*
X147390000Y-112720000D01*
X152103000Y-112860000D02*
X152103000Y-112466000D01*
X152103000Y-113630500D02*
X152103000Y-112860000D01*
X152103000Y-112860000D02*
X153509700Y-112860000D01*
X147347800Y-114100000D02*
X147390000Y-114057800D01*
X147390000Y-114057800D02*
X147390000Y-113630500D01*
X147390000Y-113630500D02*
X152103000Y-113630500D01*
X152167800Y-114649900D02*
X152167800Y-113695300D01*
X152167800Y-113695300D02*
X152103000Y-113630500D01*
X147347800Y-114990000D02*
X147347800Y-114100000D01*
X152167800Y-115540000D02*
X152167800Y-114649900D01*
X147090000Y-112420000D02*
X147390000Y-112720000D01*
X147090000Y-112270000D02*
X147090000Y-112420000D01*
G04 #@! TO.N,GND*
X146940600Y-111370900D02*
X149366000Y-111370900D01*
X149366000Y-111370900D02*
X149366000Y-110485000D01*
X149366000Y-111500000D02*
X149366000Y-111370900D01*
X149366000Y-111500000D02*
X150000000Y-111500000D01*
X149366000Y-111500000D02*
X149366000Y-112515000D01*
X145570200Y-106990100D02*
X146440000Y-107859900D01*
X146440000Y-107859900D02*
X146440000Y-109920000D01*
X154760000Y-110060000D02*
X154760000Y-111210300D01*
X152103000Y-111500000D02*
X154470300Y-111500000D01*
X154470300Y-111500000D02*
X154760000Y-111210300D01*
X150000000Y-111500000D02*
X152103000Y-111500000D01*
X152169800Y-117410000D02*
X151242400Y-118337400D01*
X151242400Y-118337400D02*
X148947600Y-118337400D01*
X141920000Y-113960000D02*
X143794300Y-113960000D01*
X145600200Y-114990000D02*
X144725400Y-114990000D01*
X143794300Y-113960000D02*
X143794300Y-114058900D01*
X143794300Y-114058900D02*
X144725400Y-114990000D01*
X145570200Y-106100000D02*
X145570200Y-106990100D01*
X145570240Y-106100000D02*
X145570240Y-107570240D01*
X145570240Y-107570240D02*
X146000000Y-108000000D01*
X149366000Y-110485000D02*
X150000000Y-109851000D01*
X150000000Y-109851000D02*
X150000000Y-109700000D01*
X150000000Y-109700000D02*
X148600000Y-108300000D01*
X148600000Y-108300000D02*
X148600000Y-107300000D01*
X154760000Y-110060000D02*
X153360000Y-110060000D01*
X153360000Y-110060000D02*
X153000000Y-109700000D01*
X153000000Y-109700000D02*
X153000000Y-109200000D01*
X158200000Y-110300000D02*
X158200000Y-112200000D01*
X158200000Y-112200000D02*
X154300000Y-116100000D01*
X154300000Y-116100000D02*
X154300000Y-116700000D01*
X145600240Y-115005240D02*
X145800000Y-115205000D01*
X145600240Y-114990000D02*
X145600240Y-115005240D01*
X145600240Y-114990000D02*
X145600240Y-117399760D01*
X145600240Y-114990000D02*
X145600240Y-117200240D01*
X147100000Y-116500000D02*
X146200000Y-117400000D01*
X147100000Y-116489800D02*
X147100000Y-116500000D01*
X148947600Y-118337400D02*
X147100000Y-116489800D01*
X146440000Y-109920000D02*
X146440000Y-111240000D01*
X146440000Y-111240000D02*
X146500000Y-111300000D01*
X145600200Y-116200200D02*
X145600200Y-114990000D01*
X147100000Y-116489800D02*
X145889800Y-116489800D01*
X145889800Y-116489800D02*
X145600200Y-116200200D01*
X145600200Y-114100000D02*
X145600200Y-114990000D01*
X146472900Y-113227300D02*
X145600200Y-114100000D01*
X146940600Y-111370900D02*
X146472900Y-111370900D01*
X146472900Y-111370900D02*
X146472900Y-113227300D01*
X146570900Y-111370900D02*
X146940600Y-111370900D01*
X146440000Y-111240000D02*
X146570900Y-111370900D01*
G04 #@! TO.N,Net-(C1-Pad1)*
X150420200Y-115540000D02*
X150420200Y-114649900D01*
X149947900Y-114390300D02*
X150207500Y-114649900D01*
X150207500Y-114649900D02*
X150420200Y-114649900D01*
X147390000Y-109920000D02*
X147748400Y-109920000D01*
X147748400Y-109920000D02*
X148400000Y-110571600D01*
X147317800Y-106990100D02*
X147390000Y-107062300D01*
X147390000Y-107062300D02*
X147390000Y-109920000D01*
X147317800Y-106100000D02*
X147317800Y-106990100D01*
X150422200Y-117410000D02*
X150422200Y-116520000D01*
X150420200Y-115540000D02*
X150420200Y-116518000D01*
X150420200Y-116518000D02*
X150422200Y-116520000D01*
X147390000Y-110070000D02*
X147090000Y-110370000D01*
X147390000Y-109920000D02*
X147390000Y-110070000D01*
G04 #@! TO.N,MOUT*
X150390200Y-107940000D02*
X150390200Y-108830100D01*
X150390200Y-108830100D02*
X150399100Y-108830100D01*
X150399100Y-108830100D02*
X152103000Y-110534000D01*
G04 #@! TO.N,Net-(C2-Pad1)*
X152137800Y-107940000D02*
X152137800Y-107050000D01*
X152139800Y-106070000D02*
X152139800Y-107048000D01*
X152139800Y-107048000D02*
X152137800Y-107050000D01*
G04 #@! TO.N,SOUT*
X141920000Y-111420000D02*
X143794300Y-111420000D01*
X145490000Y-111769700D02*
X144144000Y-111769700D01*
X144144000Y-111769700D02*
X143794300Y-111420000D01*
X144000000Y-111214300D02*
X143794300Y-111420000D01*
X144000000Y-108200000D02*
X144000000Y-111214300D01*
X141972200Y-106150000D02*
X141972200Y-106172200D01*
X143567999Y-107767999D02*
X143724001Y-107767999D01*
X143724001Y-107767999D02*
X143794001Y-107837999D01*
X143794001Y-107837999D02*
X143794001Y-107994001D01*
X141972200Y-106172200D02*
X143567999Y-107767999D01*
X143794001Y-107994001D02*
X144000000Y-108200000D01*
X145490000Y-111970000D02*
X145790000Y-112270000D01*
X145490000Y-111769700D02*
X145490000Y-111970000D01*
G04 #@! TO.N,Net-(R3-Pad1)*
X150392200Y-106070000D02*
X149517400Y-106070000D01*
X144157200Y-106150000D02*
X144157200Y-105932900D01*
X144157200Y-105932900D02*
X144880200Y-105209900D01*
X144880200Y-105209900D02*
X148657300Y-105209900D01*
X148657300Y-105209900D02*
X149517400Y-106070000D01*
X143719800Y-106150000D02*
X144157200Y-106150000D01*
X145490000Y-110070000D02*
X145790000Y-110370000D01*
X145490000Y-108969700D02*
X145490000Y-110070000D01*
X144594600Y-108074300D02*
X145490000Y-108969700D01*
X144157200Y-106150000D02*
X144594600Y-106150000D01*
X144594600Y-106150000D02*
X144594600Y-108074300D01*
G04 #@! TD*
D21*
G04 #@! TO.N,GND*
G36*
X159290001Y-115270655D02*
X158709380Y-114690034D01*
X157924678Y-114365000D01*
X157075322Y-114365000D01*
X156290620Y-114690034D01*
X155690034Y-115290620D01*
X155365000Y-116075322D01*
X155365000Y-116924678D01*
X155690034Y-117709380D01*
X156270654Y-118290000D01*
X153240653Y-118290000D01*
X153329270Y-118076060D01*
X153329270Y-117695750D01*
X153170520Y-117537000D01*
X152296760Y-117537000D01*
X152296760Y-117557000D01*
X152042760Y-117557000D01*
X152042760Y-117537000D01*
X152022760Y-117537000D01*
X152022760Y-117283000D01*
X152042760Y-117283000D01*
X152042760Y-117263000D01*
X152296760Y-117263000D01*
X152296760Y-117283000D01*
X153170520Y-117283000D01*
X153329270Y-117124250D01*
X153329270Y-116743940D01*
X153232597Y-116510551D01*
X153193949Y-116471903D01*
X153290427Y-116327515D01*
X153339710Y-116079750D01*
X153339710Y-115000250D01*
X153290427Y-114752485D01*
X153150079Y-114542441D01*
X152952800Y-114410622D01*
X152952800Y-113772611D01*
X152968178Y-113695299D01*
X152958173Y-113645000D01*
X153212560Y-113645000D01*
X153212560Y-113660000D01*
X153261843Y-113907765D01*
X153402191Y-114117809D01*
X153612235Y-114258157D01*
X153860000Y-114307440D01*
X155660000Y-114307440D01*
X155907765Y-114258157D01*
X156117809Y-114117809D01*
X156258157Y-113907765D01*
X156307440Y-113660000D01*
X156307440Y-112179618D01*
X156510811Y-111976247D01*
X156576353Y-111932453D01*
X156620147Y-111866911D01*
X156620149Y-111866909D01*
X156749854Y-111672792D01*
X156751661Y-111663709D01*
X156795400Y-111443816D01*
X156795400Y-111443812D01*
X156810778Y-111366500D01*
X156795400Y-111289188D01*
X156795400Y-108519053D01*
X157075322Y-108635000D01*
X157924678Y-108635000D01*
X158709380Y-108309966D01*
X159290000Y-107729346D01*
X159290001Y-115270655D01*
X159290001Y-115270655D01*
G37*
X159290001Y-115270655D02*
X158709380Y-114690034D01*
X157924678Y-114365000D01*
X157075322Y-114365000D01*
X156290620Y-114690034D01*
X155690034Y-115290620D01*
X155365000Y-116075322D01*
X155365000Y-116924678D01*
X155690034Y-117709380D01*
X156270654Y-118290000D01*
X153240653Y-118290000D01*
X153329270Y-118076060D01*
X153329270Y-117695750D01*
X153170520Y-117537000D01*
X152296760Y-117537000D01*
X152296760Y-117557000D01*
X152042760Y-117557000D01*
X152042760Y-117537000D01*
X152022760Y-117537000D01*
X152022760Y-117283000D01*
X152042760Y-117283000D01*
X152042760Y-117263000D01*
X152296760Y-117263000D01*
X152296760Y-117283000D01*
X153170520Y-117283000D01*
X153329270Y-117124250D01*
X153329270Y-116743940D01*
X153232597Y-116510551D01*
X153193949Y-116471903D01*
X153290427Y-116327515D01*
X153339710Y-116079750D01*
X153339710Y-115000250D01*
X153290427Y-114752485D01*
X153150079Y-114542441D01*
X152952800Y-114410622D01*
X152952800Y-113772611D01*
X152968178Y-113695299D01*
X152958173Y-113645000D01*
X153212560Y-113645000D01*
X153212560Y-113660000D01*
X153261843Y-113907765D01*
X153402191Y-114117809D01*
X153612235Y-114258157D01*
X153860000Y-114307440D01*
X155660000Y-114307440D01*
X155907765Y-114258157D01*
X156117809Y-114117809D01*
X156258157Y-113907765D01*
X156307440Y-113660000D01*
X156307440Y-112179618D01*
X156510811Y-111976247D01*
X156576353Y-111932453D01*
X156620147Y-111866911D01*
X156620149Y-111866909D01*
X156749854Y-111672792D01*
X156751661Y-111663709D01*
X156795400Y-111443816D01*
X156795400Y-111443812D01*
X156810778Y-111366500D01*
X156795400Y-111289188D01*
X156795400Y-108519053D01*
X157075322Y-108635000D01*
X157924678Y-108635000D01*
X158709380Y-108309966D01*
X159290000Y-107729346D01*
X159290001Y-115270655D01*
G36*
X143837708Y-112509154D02*
X144066684Y-112554700D01*
X144066688Y-112554700D01*
X144143999Y-112570078D01*
X144221310Y-112554700D01*
X144942560Y-112554700D01*
X144942560Y-112645000D01*
X144991843Y-112892765D01*
X145132191Y-113102809D01*
X145342235Y-113243157D01*
X145590000Y-113292440D01*
X145990000Y-113292440D01*
X146237765Y-113243157D01*
X146440000Y-113108027D01*
X146605000Y-113218277D01*
X146605000Y-113553183D01*
X146589621Y-113630500D01*
X146605000Y-113707815D01*
X146605000Y-113810531D01*
X146597608Y-113847692D01*
X146575485Y-113852093D01*
X146485047Y-113912522D01*
X146484448Y-113911923D01*
X146251059Y-113815250D01*
X145885990Y-113815250D01*
X145727240Y-113974000D01*
X145727240Y-114863000D01*
X145747240Y-114863000D01*
X145747240Y-115117000D01*
X145727240Y-115117000D01*
X145727240Y-116006000D01*
X145885990Y-116164750D01*
X146251059Y-116164750D01*
X146484448Y-116068077D01*
X146485047Y-116067478D01*
X146575485Y-116127907D01*
X146823250Y-116177190D01*
X147872270Y-116177190D01*
X148120035Y-116127907D01*
X148330079Y-115987559D01*
X148470427Y-115777515D01*
X148519710Y-115529750D01*
X148519710Y-114450250D01*
X148512798Y-114415500D01*
X148912900Y-114415500D01*
X148912900Y-114596174D01*
X149070469Y-114976580D01*
X149248290Y-115154401D01*
X149248290Y-116079750D01*
X149297573Y-116327515D01*
X149397120Y-116476497D01*
X149299573Y-116622485D01*
X149250290Y-116870250D01*
X149250290Y-117949750D01*
X149299573Y-118197515D01*
X149361370Y-118290000D01*
X140710000Y-118290000D01*
X140710000Y-115262254D01*
X141031000Y-115357000D01*
X141793000Y-115357000D01*
X141793000Y-114087000D01*
X142047000Y-114087000D01*
X142047000Y-115357000D01*
X142809000Y-115357000D01*
X143084275Y-115275750D01*
X144440730Y-115275750D01*
X144440730Y-115656060D01*
X144537403Y-115889449D01*
X144716032Y-116068077D01*
X144949421Y-116164750D01*
X145314490Y-116164750D01*
X145473240Y-116006000D01*
X145473240Y-115117000D01*
X144599480Y-115117000D01*
X144440730Y-115275750D01*
X143084275Y-115275750D01*
X143333941Y-115202059D01*
X143759630Y-114858026D01*
X144021260Y-114377277D01*
X144032012Y-114323940D01*
X144440730Y-114323940D01*
X144440730Y-114704250D01*
X144599480Y-114863000D01*
X145473240Y-114863000D01*
X145473240Y-113974000D01*
X145314490Y-113815250D01*
X144949421Y-113815250D01*
X144716032Y-113911923D01*
X144537403Y-114090551D01*
X144440730Y-114323940D01*
X144032012Y-114323940D01*
X144036220Y-114303070D01*
X143913720Y-114087000D01*
X142047000Y-114087000D01*
X141793000Y-114087000D01*
X141773000Y-114087000D01*
X141773000Y-113833000D01*
X141793000Y-113833000D01*
X141793000Y-113813000D01*
X142047000Y-113813000D01*
X142047000Y-113833000D01*
X143913720Y-113833000D01*
X144036220Y-113616930D01*
X144021260Y-113542723D01*
X143759630Y-113061974D01*
X143333941Y-112717941D01*
X143278511Y-112701580D01*
X143689180Y-112427180D01*
X143697158Y-112415241D01*
X143837708Y-112509154D01*
X143837708Y-112509154D01*
G37*
X143837708Y-112509154D02*
X144066684Y-112554700D01*
X144066688Y-112554700D01*
X144143999Y-112570078D01*
X144221310Y-112554700D01*
X144942560Y-112554700D01*
X144942560Y-112645000D01*
X144991843Y-112892765D01*
X145132191Y-113102809D01*
X145342235Y-113243157D01*
X145590000Y-113292440D01*
X145990000Y-113292440D01*
X146237765Y-113243157D01*
X146440000Y-113108027D01*
X146605000Y-113218277D01*
X146605000Y-113553183D01*
X146589621Y-113630500D01*
X146605000Y-113707815D01*
X146605000Y-113810531D01*
X146597608Y-113847692D01*
X146575485Y-113852093D01*
X146485047Y-113912522D01*
X146484448Y-113911923D01*
X146251059Y-113815250D01*
X145885990Y-113815250D01*
X145727240Y-113974000D01*
X145727240Y-114863000D01*
X145747240Y-114863000D01*
X145747240Y-115117000D01*
X145727240Y-115117000D01*
X145727240Y-116006000D01*
X145885990Y-116164750D01*
X146251059Y-116164750D01*
X146484448Y-116068077D01*
X146485047Y-116067478D01*
X146575485Y-116127907D01*
X146823250Y-116177190D01*
X147872270Y-116177190D01*
X148120035Y-116127907D01*
X148330079Y-115987559D01*
X148470427Y-115777515D01*
X148519710Y-115529750D01*
X148519710Y-114450250D01*
X148512798Y-114415500D01*
X148912900Y-114415500D01*
X148912900Y-114596174D01*
X149070469Y-114976580D01*
X149248290Y-115154401D01*
X149248290Y-116079750D01*
X149297573Y-116327515D01*
X149397120Y-116476497D01*
X149299573Y-116622485D01*
X149250290Y-116870250D01*
X149250290Y-117949750D01*
X149299573Y-118197515D01*
X149361370Y-118290000D01*
X140710000Y-118290000D01*
X140710000Y-115262254D01*
X141031000Y-115357000D01*
X141793000Y-115357000D01*
X141793000Y-114087000D01*
X142047000Y-114087000D01*
X142047000Y-115357000D01*
X142809000Y-115357000D01*
X143084275Y-115275750D01*
X144440730Y-115275750D01*
X144440730Y-115656060D01*
X144537403Y-115889449D01*
X144716032Y-116068077D01*
X144949421Y-116164750D01*
X145314490Y-116164750D01*
X145473240Y-116006000D01*
X145473240Y-115117000D01*
X144599480Y-115117000D01*
X144440730Y-115275750D01*
X143084275Y-115275750D01*
X143333941Y-115202059D01*
X143759630Y-114858026D01*
X144021260Y-114377277D01*
X144032012Y-114323940D01*
X144440730Y-114323940D01*
X144440730Y-114704250D01*
X144599480Y-114863000D01*
X145473240Y-114863000D01*
X145473240Y-113974000D01*
X145314490Y-113815250D01*
X144949421Y-113815250D01*
X144716032Y-113911923D01*
X144537403Y-114090551D01*
X144440730Y-114323940D01*
X144032012Y-114323940D01*
X144036220Y-114303070D01*
X143913720Y-114087000D01*
X142047000Y-114087000D01*
X141793000Y-114087000D01*
X141773000Y-114087000D01*
X141773000Y-113833000D01*
X141793000Y-113833000D01*
X141793000Y-113813000D01*
X142047000Y-113813000D01*
X142047000Y-113833000D01*
X143913720Y-113833000D01*
X144036220Y-113616930D01*
X144021260Y-113542723D01*
X143759630Y-113061974D01*
X143333941Y-112717941D01*
X143278511Y-112701580D01*
X143689180Y-112427180D01*
X143697158Y-112415241D01*
X143837708Y-112509154D01*
G36*
X147813720Y-111449031D02*
X148194126Y-111606600D01*
X148605874Y-111606600D01*
X148753461Y-111545468D01*
X148770371Y-111823337D01*
X148901887Y-112140845D01*
X149128556Y-112191839D01*
X149175500Y-112144895D01*
X149355105Y-112324500D01*
X149308161Y-112371444D01*
X149359155Y-112598113D01*
X149457040Y-112631850D01*
X149380143Y-112708748D01*
X149366000Y-112694605D01*
X149351858Y-112708748D01*
X149172253Y-112529143D01*
X149186395Y-112515000D01*
X148735457Y-112064062D01*
X148542791Y-112073885D01*
X148436647Y-112422491D01*
X148471987Y-112785181D01*
X148496972Y-112845500D01*
X148175000Y-112845500D01*
X148175000Y-112797311D01*
X148190378Y-112719999D01*
X148175000Y-112642687D01*
X148175000Y-112642684D01*
X148129454Y-112413708D01*
X147955953Y-112154047D01*
X147937440Y-112141677D01*
X147937440Y-111895000D01*
X147888157Y-111647235D01*
X147747809Y-111437191D01*
X147572422Y-111320000D01*
X147639721Y-111275032D01*
X147813720Y-111449031D01*
X147813720Y-111449031D01*
G37*
X147813720Y-111449031D02*
X148194126Y-111606600D01*
X148605874Y-111606600D01*
X148753461Y-111545468D01*
X148770371Y-111823337D01*
X148901887Y-112140845D01*
X149128556Y-112191839D01*
X149175500Y-112144895D01*
X149355105Y-112324500D01*
X149308161Y-112371444D01*
X149359155Y-112598113D01*
X149457040Y-112631850D01*
X149380143Y-112708748D01*
X149366000Y-112694605D01*
X149351858Y-112708748D01*
X149172253Y-112529143D01*
X149186395Y-112515000D01*
X148735457Y-112064062D01*
X148542791Y-112073885D01*
X148436647Y-112422491D01*
X148471987Y-112785181D01*
X148496972Y-112845500D01*
X148175000Y-112845500D01*
X148175000Y-112797311D01*
X148190378Y-112719999D01*
X148175000Y-112642687D01*
X148175000Y-112642684D01*
X148129454Y-112413708D01*
X147955953Y-112154047D01*
X147937440Y-112141677D01*
X147937440Y-111895000D01*
X147888157Y-111647235D01*
X147747809Y-111437191D01*
X147572422Y-111320000D01*
X147639721Y-111275032D01*
X147813720Y-111449031D01*
G36*
X148907653Y-106570411D02*
X148951447Y-106635953D01*
X149016989Y-106679747D01*
X149016991Y-106679749D01*
X149211108Y-106809454D01*
X149262028Y-106819583D01*
X149269573Y-106857515D01*
X149367120Y-107003503D01*
X149267573Y-107152485D01*
X149218290Y-107400250D01*
X149218290Y-108479750D01*
X149267573Y-108727515D01*
X149407921Y-108937559D01*
X149617965Y-109077907D01*
X149639984Y-109082287D01*
X149650746Y-109136392D01*
X149824247Y-109396053D01*
X149916614Y-109457771D01*
X151106500Y-110647658D01*
X151106500Y-110732216D01*
X151248979Y-111076192D01*
X151222956Y-111160554D01*
X151098113Y-110859155D01*
X150871444Y-110808161D01*
X150179605Y-111500000D01*
X150871444Y-112191839D01*
X151098113Y-112140845D01*
X151205906Y-111828096D01*
X151247265Y-111927946D01*
X151106500Y-112267784D01*
X151106500Y-112664216D01*
X151181590Y-112845500D01*
X150222889Y-112845500D01*
X150256939Y-112733670D01*
X150323337Y-112729629D01*
X150640845Y-112598113D01*
X150691839Y-112371444D01*
X150000000Y-111679605D01*
X149815881Y-111863724D01*
X149807115Y-111691791D01*
X149670271Y-111650124D01*
X149820395Y-111500000D01*
X149806253Y-111485858D01*
X149985858Y-111306253D01*
X150000000Y-111320395D01*
X150691839Y-110628556D01*
X150640845Y-110401887D01*
X150265640Y-110272567D01*
X150260013Y-110214819D01*
X150189209Y-110043885D01*
X149996543Y-110034062D01*
X149765650Y-110264955D01*
X149676663Y-110270371D01*
X149435000Y-110370471D01*
X149435000Y-110365726D01*
X149397120Y-110274275D01*
X149816938Y-109854457D01*
X149807115Y-109661791D01*
X149458509Y-109555647D01*
X149095819Y-109590987D01*
X148924885Y-109661791D01*
X148924538Y-109668595D01*
X148605874Y-109536600D01*
X148475157Y-109536600D01*
X148358149Y-109419592D01*
X148314353Y-109354047D01*
X148175000Y-109260934D01*
X148175000Y-107181135D01*
X148300079Y-107097559D01*
X148440427Y-106887515D01*
X148489710Y-106639750D01*
X148489710Y-106152467D01*
X148907653Y-106570411D01*
X148907653Y-106570411D01*
G37*
X148907653Y-106570411D02*
X148951447Y-106635953D01*
X149016989Y-106679747D01*
X149016991Y-106679749D01*
X149211108Y-106809454D01*
X149262028Y-106819583D01*
X149269573Y-106857515D01*
X149367120Y-107003503D01*
X149267573Y-107152485D01*
X149218290Y-107400250D01*
X149218290Y-108479750D01*
X149267573Y-108727515D01*
X149407921Y-108937559D01*
X149617965Y-109077907D01*
X149639984Y-109082287D01*
X149650746Y-109136392D01*
X149824247Y-109396053D01*
X149916614Y-109457771D01*
X151106500Y-110647658D01*
X151106500Y-110732216D01*
X151248979Y-111076192D01*
X151222956Y-111160554D01*
X151098113Y-110859155D01*
X150871444Y-110808161D01*
X150179605Y-111500000D01*
X150871444Y-112191839D01*
X151098113Y-112140845D01*
X151205906Y-111828096D01*
X151247265Y-111927946D01*
X151106500Y-112267784D01*
X151106500Y-112664216D01*
X151181590Y-112845500D01*
X150222889Y-112845500D01*
X150256939Y-112733670D01*
X150323337Y-112729629D01*
X150640845Y-112598113D01*
X150691839Y-112371444D01*
X150000000Y-111679605D01*
X149815881Y-111863724D01*
X149807115Y-111691791D01*
X149670271Y-111650124D01*
X149820395Y-111500000D01*
X149806253Y-111485858D01*
X149985858Y-111306253D01*
X150000000Y-111320395D01*
X150691839Y-110628556D01*
X150640845Y-110401887D01*
X150265640Y-110272567D01*
X150260013Y-110214819D01*
X150189209Y-110043885D01*
X149996543Y-110034062D01*
X149765650Y-110264955D01*
X149676663Y-110270371D01*
X149435000Y-110370471D01*
X149435000Y-110365726D01*
X149397120Y-110274275D01*
X149816938Y-109854457D01*
X149807115Y-109661791D01*
X149458509Y-109555647D01*
X149095819Y-109590987D01*
X148924885Y-109661791D01*
X148924538Y-109668595D01*
X148605874Y-109536600D01*
X148475157Y-109536600D01*
X148358149Y-109419592D01*
X148314353Y-109354047D01*
X148175000Y-109260934D01*
X148175000Y-107181135D01*
X148300079Y-107097559D01*
X148440427Y-106887515D01*
X148489710Y-106639750D01*
X148489710Y-106152467D01*
X148907653Y-106570411D01*
G36*
X155161042Y-108625000D02*
X155045750Y-108625000D01*
X154887000Y-108783750D01*
X154887000Y-109933000D01*
X154907000Y-109933000D01*
X154907000Y-110187000D01*
X154887000Y-110187000D01*
X154887000Y-110207000D01*
X154633000Y-110207000D01*
X154633000Y-110187000D01*
X153383750Y-110187000D01*
X153225000Y-110345750D01*
X153225000Y-110986309D01*
X153321673Y-111219698D01*
X153500301Y-111398327D01*
X153640209Y-111456279D01*
X153612235Y-111461843D01*
X153402191Y-111602191D01*
X153261843Y-111812235D01*
X153212560Y-112060000D01*
X153212560Y-112075000D01*
X153019646Y-112075000D01*
X152957021Y-111923808D01*
X153057364Y-111598514D01*
X153022416Y-111225796D01*
X152958735Y-111072054D01*
X153099500Y-110732216D01*
X153099500Y-110335784D01*
X152947792Y-109969528D01*
X152667472Y-109689208D01*
X152301216Y-109537500D01*
X152216658Y-109537500D01*
X151812849Y-109133691D01*
X153225000Y-109133691D01*
X153225000Y-109774250D01*
X153383750Y-109933000D01*
X154633000Y-109933000D01*
X154633000Y-108783750D01*
X154474250Y-108625000D01*
X153733690Y-108625000D01*
X153500301Y-108721673D01*
X153321673Y-108900302D01*
X153225000Y-109133691D01*
X151812849Y-109133691D01*
X151806348Y-109127190D01*
X152662270Y-109127190D01*
X152910035Y-109077907D01*
X153120079Y-108937559D01*
X153260427Y-108727515D01*
X153309710Y-108479750D01*
X153309710Y-107400250D01*
X153260427Y-107152485D01*
X153162880Y-107006497D01*
X153262427Y-106857515D01*
X153284183Y-106748140D01*
X155161042Y-108625000D01*
X155161042Y-108625000D01*
G37*
X155161042Y-108625000D02*
X155045750Y-108625000D01*
X154887000Y-108783750D01*
X154887000Y-109933000D01*
X154907000Y-109933000D01*
X154907000Y-110187000D01*
X154887000Y-110187000D01*
X154887000Y-110207000D01*
X154633000Y-110207000D01*
X154633000Y-110187000D01*
X153383750Y-110187000D01*
X153225000Y-110345750D01*
X153225000Y-110986309D01*
X153321673Y-111219698D01*
X153500301Y-111398327D01*
X153640209Y-111456279D01*
X153612235Y-111461843D01*
X153402191Y-111602191D01*
X153261843Y-111812235D01*
X153212560Y-112060000D01*
X153212560Y-112075000D01*
X153019646Y-112075000D01*
X152957021Y-111923808D01*
X153057364Y-111598514D01*
X153022416Y-111225796D01*
X152958735Y-111072054D01*
X153099500Y-110732216D01*
X153099500Y-110335784D01*
X152947792Y-109969528D01*
X152667472Y-109689208D01*
X152301216Y-109537500D01*
X152216658Y-109537500D01*
X151812849Y-109133691D01*
X153225000Y-109133691D01*
X153225000Y-109774250D01*
X153383750Y-109933000D01*
X154633000Y-109933000D01*
X154633000Y-108783750D01*
X154474250Y-108625000D01*
X153733690Y-108625000D01*
X153500301Y-108721673D01*
X153321673Y-108900302D01*
X153225000Y-109133691D01*
X151812849Y-109133691D01*
X151806348Y-109127190D01*
X152662270Y-109127190D01*
X152910035Y-109077907D01*
X153120079Y-108937559D01*
X153260427Y-108727515D01*
X153309710Y-108479750D01*
X153309710Y-107400250D01*
X153260427Y-107152485D01*
X153162880Y-107006497D01*
X153262427Y-106857515D01*
X153284183Y-106748140D01*
X155161042Y-108625000D01*
G36*
X146607578Y-111320000D02*
X146440000Y-111431973D01*
X146272422Y-111320000D01*
X146440000Y-111208027D01*
X146607578Y-111320000D01*
X146607578Y-111320000D01*
G37*
X146607578Y-111320000D02*
X146440000Y-111431973D01*
X146272422Y-111320000D01*
X146440000Y-111208027D01*
X146607578Y-111320000D01*
G36*
X154632998Y-111412560D02*
X154556690Y-111412560D01*
X154632998Y-111336252D01*
X154632998Y-111412560D01*
X154632998Y-111412560D01*
G37*
X154632998Y-111412560D02*
X154556690Y-111412560D01*
X154632998Y-111336252D01*
X154632998Y-111412560D01*
G36*
X154908746Y-111357996D02*
X154887002Y-111379740D01*
X154887002Y-111336252D01*
X154908746Y-111357996D01*
X154908746Y-111357996D01*
G37*
X154908746Y-111357996D02*
X154887002Y-111379740D01*
X154887002Y-111336252D01*
X154908746Y-111357996D01*
G36*
X145717240Y-106227000D02*
X145697240Y-106227000D01*
X145697240Y-107116000D01*
X145855990Y-107274750D01*
X146221059Y-107274750D01*
X146454448Y-107178077D01*
X146455047Y-107177478D01*
X146545485Y-107237907D01*
X146567587Y-107242303D01*
X146578346Y-107296391D01*
X146605000Y-107336282D01*
X146605001Y-109421722D01*
X146440000Y-109531973D01*
X146275000Y-109421723D01*
X146275000Y-109047012D01*
X146290378Y-108969700D01*
X146275000Y-108892388D01*
X146275000Y-108892384D01*
X146229454Y-108663408D01*
X146210472Y-108635000D01*
X146099749Y-108469291D01*
X146099747Y-108469289D01*
X146055953Y-108403747D01*
X145990411Y-108359953D01*
X145379600Y-107749143D01*
X145379600Y-107179640D01*
X145443240Y-107116000D01*
X145443240Y-106227000D01*
X145423240Y-106227000D01*
X145423240Y-105994900D01*
X145717240Y-105994900D01*
X145717240Y-106227000D01*
X145717240Y-106227000D01*
G37*
X145717240Y-106227000D02*
X145697240Y-106227000D01*
X145697240Y-107116000D01*
X145855990Y-107274750D01*
X146221059Y-107274750D01*
X146454448Y-107178077D01*
X146455047Y-107177478D01*
X146545485Y-107237907D01*
X146567587Y-107242303D01*
X146578346Y-107296391D01*
X146605000Y-107336282D01*
X146605001Y-109421722D01*
X146440000Y-109531973D01*
X146275000Y-109421723D01*
X146275000Y-109047012D01*
X146290378Y-108969700D01*
X146275000Y-108892388D01*
X146275000Y-108892384D01*
X146229454Y-108663408D01*
X146210472Y-108635000D01*
X146099749Y-108469291D01*
X146099747Y-108469289D01*
X146055953Y-108403747D01*
X145990411Y-108359953D01*
X145379600Y-107749143D01*
X145379600Y-107179640D01*
X145443240Y-107116000D01*
X145443240Y-106227000D01*
X145423240Y-106227000D01*
X145423240Y-105994900D01*
X145717240Y-105994900D01*
X145717240Y-106227000D01*
G04 #@! TD*
M02*
